<svg xmlns="http://www.w3.org/2000/svg" version="1.1" xmlns:xlink="http://www.w3.org/1999/xlink" xmlns:svgjs="http://svgjs.com/svgjs" width="1980" height="1080" preserveAspectRatio="none" viewBox="0 0 1980 1080"><g mask="url(&quot;#SvgjsMask1098&quot;)" fill="none"><rect width="1980" height="1080" x="0" y="0" fill="#0e2a47"></rect><path d="M5 1080L1085 0L1262 0L182 1080z" fill="url(#SvgjsLinearGradient1099)"></path><path d="M764.4 1080L1844.4 0L2582.4 0L1502.4 1080z" fill="url(#SvgjsLinearGradient1099)"></path><path d="M1869 1080L789 0L-99 0L981 1080z" fill="url(#SvgjsLinearGradient1100)"></path><path d="M1236.6 1080L156.5999999999999 0L-804.9000000000001 0L275.0999999999999 1080z" fill="url(#SvgjsLinearGradient1100)"></path><path d="M1226.2873670707029 1080L1980 326.2873670707029L1980 1080z" fill="url(#SvgjsLinearGradient1099)"></path><path d="M0 1080L753.7126329292971 1080L 0 326.2873670707029z" fill="url(#SvgjsLinearGradient1100)"></path></g><defs><mask id="SvgjsMask1098"><rect width="1980" height="1080" fill="#ffffff"></rect></mask><linearGradient x1="0%" y1="100%" x2="100%" y2="0%" id="SvgjsLinearGradient1099"><stop stop-color="rgba(15, 70, 185, 0.2)" offset="0"></stop><stop stop-opacity="0" stop-color="rgba(15, 70, 185, 0.2)" offset="0.66"></stop></linearGradient><linearGradient x1="100%" y1="100%" x2="0%" y2="0%" id="SvgjsLinearGradient1100"><stop stop-color="rgba(15, 70, 185, 0.2)" offset="0"></stop><stop stop-opacity="0" stop-color="rgba(15, 70, 185, 0.2)" offset="0.66"></stop></linearGradient></defs></svg>