<svg xmlns="http://www.w3.org/2000/svg" version="1.1" xmlns:xlink="http://www.w3.org/1999/xlink" xmlns:svgjs="http://svgjs.com/svgjs" width="1980" height="1080" preserveAspectRatio="none" viewBox="0 0 1980 1080"><g mask="url(&quot;#SvgjsMask1030&quot;)" fill="none"><rect width="1980" height="1080" x="0" y="0" fill="rgba(71, 14, 14, 1)"></rect><path d="M 0,391 C 79.2,318.8 237.6,53 396,30 C 554.4,7 633.6,275.2 792,276 C 950.4,276.8 1029.6,0.2 1188,34 C 1346.4,67.8 1425.6,428 1584,445 C 1742.4,462 1900.8,184.2 1980,119L1980 1080L0 1080z" fill="rgba(126, 24, 24, 1)"></path><path d="M 0,804 C 132,857.2 396,1103 660,1070 C 924,1037 1056,650.4 1320,639 C 1584,627.6 1848,938.2 1980,1013L1980 1080L0 1080z" fill="rgba(171, 34, 34, 1)"></path></g><defs><mask id="SvgjsMask1030"><rect width="1980" height="1080" fill="#ffffff"></rect></mask></defs></svg>