<svg xmlns="http://www.w3.org/2000/svg" version="1.1" xmlns:xlink="http://www.w3.org/1999/xlink" xmlns:svgjs="http://svgjs.com/svgjs" width="3840" height="2160" preserveAspectRatio="none" viewBox="0 0 3840 2160"><g mask="url(&quot;#SvgjsMask1019&quot;)" fill="none"><rect width="3840" height="2160" x="0" y="0" fill="#0e2a47"></rect><path d="M 0,351 C 153.6,435.4 460.8,783.4 768,773 C 1075.2,762.6 1228.8,261 1536,299 C 1843.2,337 1996.8,1019 2304,963 C 2611.2,907 2764.8,7 3072,19 C 3379.2,31 3686.4,822.2 3840,1023L3840 2160L0 2160z" fill="#184a7e"></path><path d="M 0,1336 C 256,1412.8 768,1675.4 1280,1720 C 1792,1764.6 2048,1542.2 2560,1559 C 3072,1575.8 3584,1755 3840,1804L3840 2160L0 2160z" fill="#2264ab"></path></g><defs><mask id="SvgjsMask1019"><rect width="3840" height="2160" fill="#ffffff"></rect></mask></defs></svg>