<svg xmlns="http://www.w3.org/2000/svg" version="1.1" xmlns:xlink="http://www.w3.org/1999/xlink" xmlns:svgjs="http://svgjs.com/svgjs" width="3960" height="1160" preserveAspectRatio="none" viewBox="0 0 3960 1160"><g mask="url(&quot;#SvgjsMask1216&quot;)" fill="none"><rect width="3960" height="1160" x="0" y="0" fill="rgba(71, 14, 14, 1)"></rect><path d="M 0,425 C 158.4,360.8 475.2,79.4 792,104 C 1108.8,128.6 1267.2,562.8 1584,548 C 1900.8,533.2 2059.2,48.6 2376,30 C 2692.8,11.4 2851.2,446 3168,455 C 3484.8,464 3801.6,151 3960,75L3960 1160L0 1160z" fill="rgba(126, 24, 24, 1)"></path><path d="M 0,1061 C 264,1007.2 792,787.2 1320,792 C 1848,796.8 2112,1083.6 2640,1085 C 3168,1086.4 3696,856.2 3960,799L3960 1160L0 1160z" fill="rgba(171, 34, 34, 1)"></path></g><defs><mask id="SvgjsMask1216"><rect width="3960" height="1160" fill="#ffffff"></rect></mask></defs></svg>