<svg xmlns="http://www.w3.org/2000/svg" version="1.1" xmlns:xlink="http://www.w3.org/1999/xlink" xmlns:svgjs="http://svgjs.com/svgjs" width="1980" height="1160" preserveAspectRatio="none" viewBox="0 0 1980 1160"><g mask="url(&quot;#SvgjsMask1000&quot;)" fill="none"><rect width="1980" height="1160" x="0" y="0" fill="#0e2a47"></rect><path d="M 0,146 C 79.2,209.8 237.6,459 396,465 C 554.4,471 633.6,180 792,176 C 950.4,172 1029.6,471 1188,445 C 1346.4,419 1425.6,71.6 1584,46 C 1742.4,20.4 1900.8,262.8 1980,317L1980 1160L0 1160z" fill="#184a7e"></path><path d="M 0,848 C 132,878.2 396,1025.2 660,999 C 924,972.8 1056,724.4 1320,717 C 1584,709.6 1848,913 1980,962L1980 1160L0 1160z" fill="#2264ab"></path></g><defs><mask id="SvgjsMask1000"><rect width="1980" height="1160" fill="#ffffff"></rect></mask></defs></svg>