<svg xmlns="http://www.w3.org/2000/svg" version="1.1" xmlns:xlink="http://www.w3.org/1999/xlink" xmlns:svgjs="http://svgjs.com/svgjs" width="1980" height="1160" preserveAspectRatio="none" viewBox="0 0 1980 1160"><g mask="url(&quot;#SvgjsMask1006&quot;)" fill="none"><rect width="1980" height="1160" x="0" y="0" fill="rgba(71, 14, 14, 1)"></rect><path d="M 0,484 C 79.2,444.8 237.6,294.6 396,288 C 554.4,281.4 633.6,467.6 792,451 C 950.4,434.4 1029.6,225.8 1188,205 C 1346.4,184.2 1425.6,335.6 1584,347 C 1742.4,358.4 1900.8,279 1980,262L1980 1160L0 1160z" fill="rgba(126, 24, 24, 1)"></path><path d="M 0,689 C 132,756.4 396,1000.8 660,1026 C 924,1051.2 1056,822.4 1320,815 C 1584,807.6 1848,954.2 1980,989L1980 1160L0 1160z" fill="rgba(171, 34, 34, 1)"></path></g><defs><mask id="SvgjsMask1006"><rect width="1980" height="1160" fill="#ffffff"></rect></mask></defs></svg>